<svg width="17" height="17" viewBox="0 0 17 17" fill="none" xmlns="http://www.w3.org/2000/svg">
<g opacity="0.5">
<path fill-rule="evenodd" clip-rule="evenodd" d="M0.708374 3.54167C0.708374 2.75926 1.34264 2.125 2.12504 2.125H14.875C15.6574 2.125 16.2917 2.75926 16.2917 3.54167V13.4583C16.2917 14.2407 15.6574 14.875 14.875 14.875H2.12504C1.34264 14.875 0.708374 14.2407 0.708374 13.4583V3.54167ZM14.875 3.54167H2.12504V13.4583H14.875L14.875 3.54167Z" fill="white"/>
<path fill-rule="evenodd" clip-rule="evenodd" d="M2.12508 2.8335H14.8751C15.2663 2.8335 15.5834 3.15063 15.5834 3.54183V13.4585C15.5834 13.8497 15.2663 14.1668 14.8751 14.1668H2.12508C1.73388 14.1668 1.41675 13.8497 1.41675 13.4585V3.54183C1.41675 3.15063 1.73388 2.8335 2.12508 2.8335ZM11.9334 8.85427C11.9334 8.5229 11.6648 8.25427 11.3334 8.25427C11.002 8.25427 10.7334 8.5229 10.7334 8.85427V11.3334C10.7334 11.6648 11.002 11.9334 11.3334 11.9334C11.6648 11.9334 11.9334 11.6648 11.9334 11.3334V8.85427ZM8.4999 5.06677C8.83127 5.06677 9.0999 5.3354 9.0999 5.66677V11.3334C9.0999 11.6648 8.83127 11.9334 8.4999 11.9334C8.16853 11.9334 7.8999 11.6648 7.8999 11.3334V5.66677C7.8999 5.3354 8.16853 5.06677 8.4999 5.06677ZM6.26665 7.0834C6.26665 6.75203 5.99802 6.4834 5.66665 6.4834C5.33528 6.4834 5.06665 6.75203 5.06665 7.0834V11.3334C5.06665 11.6648 5.33528 11.9334 5.66665 11.9334C5.99802 11.9334 6.26665 11.6648 6.26665 11.3334V7.0834Z" fill="white"/>
</g>
</svg>
