<svg width="41" height="25" viewBox="0 0 41 25" fill="none" xmlns="http://www.w3.org/2000/svg">
<path d="M38.6241 16.6244C37.3785 15.5425 34.4547 14.1964 33.0464 11.4266C31.6 8.58339 32.2712 5.98949 32.2712 4.24897C32.2712 1.90245 30.2998 0.000990837 27.8692 0.000990837C25.4385 0.000990837 23.4671 1.90344 23.4671 4.24897C23.4671 5.70735 23.29 9.54009 22.7949 11.53C22.6446 12.133 22.4222 12.4558 22.2544 12.6824C21.612 13.5536 19.7806 14.5589 17.9491 13.343C17.4313 13.0131 16.9742 12.427 16.7518 11.7077C16.2804 10.1799 16.8074 5.74908 16.6067 3.8357C16.6046 3.8198 16.6036 3.80391 16.6016 3.78802C16.5676 3.48998 16.5171 3.2287 16.4379 3.01412C15.8902 1.26963 14.2111 0 12.2253 0C9.79358 0 7.82324 1.90245 7.82324 4.24798C7.82324 5.50667 8.39046 6.63722 9.29225 7.41508C10.538 8.49699 13.4616 9.84306 14.87 12.6128C16.3164 15.4561 15.6451 18.0499 15.6451 19.7905C15.6451 22.1369 17.6166 24.0385 20.0472 24.0385C21.891 24.0385 23.4692 22.9436 24.125 21.3919C25.1719 19.0851 23.4681 15.0369 24.9496 12.0187C25.2409 11.4266 25.5642 11.1256 25.8915 10.8395C26.5731 10.2454 28.7237 9.5788 30.2648 11.3611C30.657 11.8658 30.7671 12.2562 30.8597 12.6416C31.2531 14.2778 30.8948 19.4527 31.4805 21.0313C32.0313 22.7718 33.7073 24.0374 35.6911 24.0374C38.1227 24.0374 40.0932 22.135 40.0932 19.7895C40.0932 18.5307 39.5259 17.4002 38.6241 16.6224V16.6244Z" fill="url(#paint0_linear_1441_65)"/>
<path d="M4.40203 24.039C6.83321 24.039 8.80412 22.137 8.80412 19.7909C8.80412 17.4449 6.83321 15.543 4.40203 15.543C1.97085 15.543 0 17.4449 0 19.7909C0 22.137 1.97085 24.039 4.40203 24.039Z" fill="url(#paint1_linear_1441_65)"/>
<defs>
<linearGradient id="paint0_linear_1441_65" x1="4.96435" y1="40.2853" x2="35.7896" y2="-1.04698" gradientUnits="userSpaceOnUse">
<stop offset="0.25822" stop-color="#40F0C1"/>
<stop offset="1" stop-color="#BFFD3E"/>
</linearGradient>
<linearGradient id="paint1_linear_1441_65" x1="-5.12576" y1="33.9704" x2="20.036" y2="-6.2403" gradientUnits="userSpaceOnUse">
<stop stop-color="#40F0C1"/>
<stop offset="1" stop-color="#BFFD3E"/>
</linearGradient>
</defs>
</svg>
