<svg width="16" height="16" viewBox="0 0 16 16" fill="none" xmlns="http://www.w3.org/2000/svg">
<g opacity="0.5">
<path d="M8.00011 3.87267C8.69774 3.87267 9.26327 3.30416 9.26327 2.60285C9.26327 1.90153 8.69774 1.33301 8.00011 1.33301C7.30247 1.33301 6.73694 1.90153 6.73694 2.60285C6.73694 3.30416 7.30247 3.87267 8.00011 3.87267Z" stroke="white" stroke-width="1.33333" stroke-linejoin="round"/>
<path d="M3.26316 13.3971C3.96077 13.3971 4.5263 12.8286 4.5263 12.1273C4.5263 11.426 3.96077 10.8574 3.26316 10.8574C2.56554 10.8574 2 11.426 2 12.1273C2 12.8286 2.56554 13.3971 3.26316 13.3971Z" stroke="white" stroke-width="1.33333" stroke-linejoin="round"/>
<path d="M12.7368 13.3971C13.4344 13.3971 13.9999 12.8286 13.9999 12.1273C13.9999 11.426 13.4344 10.8574 12.7368 10.8574C12.0392 10.8574 11.4736 11.426 11.4736 12.1273C11.4736 12.8286 12.0392 13.3971 12.7368 13.3971Z" stroke="white" stroke-width="1.33333" stroke-linejoin="round"/>
<path d="M11.0475 3.4375C12.8146 4.48707 13.9999 6.42157 13.9999 8.63437C13.9999 8.82663 13.991 9.01683 13.9735 9.2045" stroke="white" stroke-width="1.33333" stroke-linecap="round" stroke-linejoin="round"/>
<path d="M10.338 14.1914C9.61951 14.4973 8.82944 14.6664 8.00004 14.6664C7.17068 14.6664 6.38061 14.4973 5.66211 14.1914" fill="white"/>
<path d="M10.338 14.1914C9.61951 14.4973 8.82944 14.6664 8.00004 14.6664C7.17068 14.6664 6.38061 14.4973 5.66211 14.1914" stroke="white" stroke-width="1.33333" stroke-linecap="round" stroke-linejoin="round"/>
<path d="M2.02645 9.2045C2.00895 9.01683 2 8.82663 2 8.63437C2 6.42157 3.1853 4.48707 4.95243 3.4375" stroke="white" stroke-width="1.33333" stroke-linecap="round" stroke-linejoin="round"/>
</g>
</svg>
