<svg width="14" height="14" viewBox="0 0 14 14" fill="none" xmlns="http://www.w3.org/2000/svg">
<path fill-rule="evenodd" clip-rule="evenodd" d="M0 1C0 0.447716 0.447715 0 1 0H13C13.5523 0 14 0.447715 14 1V13C14 13.5523 13.5523 14 13 14H1C0.447716 14 0 13.5523 0 13V1ZM1.9 5.77716C1.9 5.44579 2.16863 5.17716 2.5 5.17716H9.85607L7.94546 3.26655C7.71114 3.03223 7.71114 2.65234 7.94546 2.41802C8.17977 2.18371 8.55967 2.18371 8.79398 2.41802L11.7267 5.35072C11.7345 5.35844 11.7421 5.36637 11.7494 5.3745C11.7925 5.42206 11.8267 5.47485 11.8518 5.53071C11.8857 5.6059 11.9046 5.68932 11.9046 5.77716C11.9046 5.8689 11.884 5.95582 11.8472 6.03358C11.8251 6.08046 11.7965 6.12507 11.7615 6.16609C11.7407 6.19051 11.7179 6.21325 11.6935 6.23406C11.6506 6.2707 11.6037 6.30029 11.5544 6.32286C11.4783 6.35772 11.3937 6.37716 11.3046 6.37716H2.5C2.16863 6.37716 1.9 6.10853 1.9 5.77716ZM2.46573 7.6684C2.53648 7.63906 2.61405 7.62287 2.6954 7.62287H11.5C11.8314 7.62287 12.1 7.8915 12.1 8.22287C12.1 8.55424 11.8314 8.82287 11.5 8.82287H4.14394L6.05455 10.7335C6.28886 10.9678 6.28886 11.3477 6.05455 11.582C5.82023 11.8163 5.44034 11.8163 5.20602 11.582L2.2715 8.64749L2.27114 8.64713M2.46573 7.6684C2.39497 7.69768 2.32867 7.74108 2.27114 7.79861C2.16256 7.90719 2.0954 8.05719 2.0954 8.22287C2.0954 8.22352 2.09541 8.22416 2.09541 8.22481C2.09566 8.30546 2.11183 8.38236 2.14093 8.45254C2.16955 8.5217 2.21165 8.58659 2.26724 8.6432" fill="white" fill-opacity="0.5"/>
</svg>
