<svg width="23" height="27" viewBox="0 0 23 27" fill="none" xmlns="http://www.w3.org/2000/svg">
<path d="M0.6875 27V0.818181H12.0398C14.0341 0.818181 15.7088 1.08665 17.0639 1.62358C18.4276 2.16051 19.4545 2.91903 20.1449 3.89915C20.8438 4.87926 21.1932 6.03409 21.1932 7.36364C21.1932 8.3267 20.9801 9.20454 20.554 9.99716C20.1364 10.7898 19.5483 11.4545 18.7898 11.9915C18.0313 12.5199 17.1449 12.8864 16.1307 13.0909V13.3466C17.2557 13.3892 18.2784 13.6747 19.1989 14.2031C20.1193 14.723 20.8523 15.4432 21.3977 16.3636C21.9432 17.2756 22.2159 18.3494 22.2159 19.5852C22.2159 21.017 21.8409 22.2912 21.0909 23.4077C20.3494 24.5241 19.2926 25.402 17.9205 26.0412C16.5483 26.6804 14.9119 27 13.0114 27H0.6875ZM7.79545 21.3239H11.1193C12.3125 21.3239 13.2074 21.1023 13.804 20.6591C14.4006 20.2074 14.6989 19.5426 14.6989 18.6648C14.6989 18.0511 14.5582 17.5312 14.277 17.1051C13.9957 16.679 13.5952 16.3551 13.0753 16.1335C12.5639 15.9119 11.946 15.8011 11.2216 15.8011H7.79545V21.3239ZM7.79545 11.4034H10.7102C11.3324 11.4034 11.8821 11.3054 12.3594 11.1094C12.8366 10.9134 13.2074 10.6321 13.4716 10.2656C13.7443 9.89062 13.8807 9.43466 13.8807 8.89773C13.8807 8.08807 13.5909 7.47017 13.0114 7.04403C12.4318 6.60938 11.6989 6.39205 10.8125 6.39205H7.79545V11.4034Z" fill="url(#paint0_linear_1433_50)"/>
<defs>
<linearGradient id="paint0_linear_1433_50" x1="26.5" y1="30" x2="-1" y2="-1" gradientUnits="userSpaceOnUse">
<stop stop-color="#4CF9FF"/>
<stop offset="1" stop-color="#3A84FF"/>
</linearGradient>
</defs>
</svg>
