<svg width="146" height="44" viewBox="0 0 146 44" fill="none" xmlns="http://www.w3.org/2000/svg">
<g filter="url(#filter0_d_1433_51)">
<path d="M35.4347 31V16.4545H41.0028C42.054 16.4545 42.9276 16.6203 43.6236 16.9517C44.3243 17.2784 44.8475 17.7259 45.1932 18.294C45.5436 18.8622 45.7188 19.5062 45.7188 20.2259C45.7188 20.8177 45.6051 21.3243 45.3778 21.7457C45.1506 22.1624 44.8452 22.5009 44.4616 22.7614C44.0781 23.0218 43.6496 23.2088 43.1761 23.3224V23.4645C43.6922 23.4929 44.187 23.6515 44.6605 23.9403C45.1387 24.2244 45.5294 24.6269 45.8324 25.1477C46.1354 25.6686 46.2869 26.2983 46.2869 27.0369C46.2869 27.7898 46.1046 28.4669 45.7401 29.0682C45.3755 29.6648 44.8262 30.1359 44.0923 30.4815C43.3584 30.8272 42.4351 31 41.3224 31H35.4347ZM38.0696 28.7983H40.9034C41.8598 28.7983 42.5488 28.616 42.9702 28.2514C43.3963 27.8821 43.6094 27.4086 43.6094 26.831C43.6094 26.4001 43.5028 26.0118 43.2898 25.6662C43.0767 25.3158 42.7737 25.0412 42.3807 24.8423C41.9877 24.6387 41.5189 24.5369 40.9744 24.5369H38.0696V28.7983ZM38.0696 22.6406H40.6761C41.1307 22.6406 41.5402 22.5578 41.9048 22.392C42.2694 22.2216 42.5559 21.9825 42.7642 21.6747C42.9773 21.3622 43.0838 20.9929 43.0838 20.5668C43.0838 20.0033 42.8849 19.5393 42.4872 19.1747C42.0942 18.8101 41.5095 18.6278 40.733 18.6278H38.0696V22.6406ZM55.4187 26.4119V20.0909H57.9897V31H55.4968V29.0611H55.3832C55.137 29.6719 54.7321 30.1714 54.1687 30.5597C53.61 30.9479 52.921 31.142 52.1019 31.142C51.387 31.142 50.7549 30.9834 50.2056 30.6662C49.6611 30.3442 49.235 29.8778 48.9272 29.267C48.6194 28.6515 48.4656 27.9081 48.4656 27.0369V20.0909H51.0366V26.6392C51.0366 27.3305 51.226 27.8797 51.6048 28.2869C51.9835 28.6941 52.4807 28.8977 53.0962 28.8977C53.475 28.8977 53.842 28.8054 54.1971 28.6207C54.5522 28.4361 54.8434 28.1615 55.0707 27.7969C55.3027 27.4276 55.4187 26.9659 55.4187 26.4119ZM63.2045 16.4545V31H60.6335V16.4545H63.2045ZM65.962 31V16.4545H68.533V21.8949H68.6396C68.7721 21.6297 68.9592 21.348 69.2006 21.0497C69.4421 20.7467 69.7688 20.4886 70.1808 20.2756C70.5927 20.0578 71.1183 19.9489 71.7575 19.9489C72.6003 19.9489 73.3602 20.1643 74.0373 20.5952C74.7191 21.0213 75.2589 21.6534 75.6566 22.4915C76.0591 23.3248 76.2603 24.3475 76.2603 25.5597C76.2603 26.7576 76.0638 27.7756 75.6708 28.6136C75.2778 29.4517 74.7428 30.0909 74.0657 30.5312C73.3886 30.9716 72.6216 31.1918 71.7646 31.1918C71.1396 31.1918 70.6211 31.0876 70.2092 30.8793C69.7972 30.6709 69.4658 30.42 69.2148 30.1264C68.9686 29.8281 68.7769 29.5464 68.6396 29.2812H68.4904V31H65.962ZM68.4833 25.5455C68.4833 26.2509 68.5827 26.8688 68.7816 27.3991C68.9852 27.9295 69.2764 28.3437 69.6552 28.642C70.0387 28.9356 70.5027 29.0824 71.0472 29.0824C71.6154 29.0824 72.0913 28.9309 72.4748 28.6278C72.8583 28.3201 73.1471 27.901 73.3413 27.3707C73.5401 26.8357 73.6396 26.2273 73.6396 25.5455C73.6396 24.8684 73.5425 24.267 73.3484 23.7415C73.1542 23.2159 72.8654 22.804 72.4819 22.5057C72.0984 22.2074 71.6201 22.0582 71.0472 22.0582C70.498 22.0582 70.0316 22.2027 69.6481 22.4915C69.2646 22.7803 68.9734 23.1851 68.7745 23.706C68.5804 24.2268 68.4833 24.84 68.4833 25.5455ZM81.5852 31.2202C80.8939 31.2202 80.2713 31.0971 79.7173 30.8509C79.1681 30.5999 78.7325 30.2306 78.4105 29.7429C78.0933 29.2552 77.9347 28.6539 77.9347 27.9389C77.9347 27.3234 78.0483 26.8144 78.2756 26.4119C78.5028 26.0095 78.813 25.6875 79.206 25.446C79.599 25.2045 80.0417 25.0223 80.5341 24.8991C81.0313 24.7713 81.545 24.679 82.0753 24.6222C82.7145 24.5559 83.233 24.4967 83.6307 24.4446C84.0284 24.3878 84.3172 24.3026 84.4972 24.1889C84.6818 24.0705 84.7741 23.8883 84.7741 23.642V23.5994C84.7741 23.0644 84.6155 22.6501 84.2983 22.3565C83.9811 22.063 83.5241 21.9162 82.9276 21.9162C82.2978 21.9162 81.7983 22.0535 81.429 22.3281C81.0644 22.6027 80.8182 22.9271 80.6903 23.3011L78.2898 22.9602C78.4792 22.2973 78.7917 21.7434 79.2273 21.2983C79.6629 20.8485 80.1955 20.5123 80.8253 20.2898C81.455 20.0625 82.151 19.9489 82.9134 19.9489C83.4389 19.9489 83.9621 20.0104 84.483 20.1335C85.0038 20.2566 85.4796 20.4602 85.9105 20.7443C86.3414 21.0237 86.687 21.4048 86.9474 21.8878C87.2126 22.3707 87.3452 22.9744 87.3452 23.6989V31H84.8736V29.5014H84.7884C84.6321 29.8045 84.4119 30.0885 84.1278 30.3537C83.8485 30.6141 83.4957 30.8248 83.0696 30.9858C82.6482 31.142 82.1534 31.2202 81.5852 31.2202ZM82.2528 29.331C82.7689 29.331 83.2164 29.2292 83.5952 29.0256C83.974 28.8172 84.2652 28.5426 84.4688 28.2017C84.6771 27.8608 84.7812 27.4891 84.7812 27.0866V25.8011C84.7008 25.8674 84.5634 25.929 84.3693 25.9858C84.1799 26.0426 83.9669 26.0923 83.7301 26.1349C83.4934 26.1776 83.259 26.2154 83.027 26.2486C82.795 26.2817 82.5938 26.3101 82.4233 26.3338C82.0398 26.3859 81.6965 26.4711 81.3935 26.5895C81.0904 26.7079 80.8513 26.8736 80.6761 27.0866C80.5009 27.295 80.4134 27.5649 80.4134 27.8963C80.4134 28.3698 80.5862 28.7273 80.9318 28.9688C81.2775 29.2102 81.7178 29.331 82.2528 29.331ZM97.9489 20.4531C97.8826 19.8329 97.6032 19.3499 97.1108 19.0043C96.6231 18.6586 95.9886 18.4858 95.2074 18.4858C94.6581 18.4858 94.187 18.5687 93.794 18.7344C93.401 18.9001 93.1004 19.125 92.892 19.4091C92.6837 19.6932 92.5772 20.0175 92.5724 20.3821C92.5724 20.6851 92.6411 20.9479 92.7784 21.1705C92.9205 21.393 93.1122 21.5824 93.3537 21.7386C93.5952 21.8902 93.8627 22.018 94.1562 22.1222C94.4498 22.2263 94.7457 22.3139 95.044 22.3849L96.4077 22.7259C96.9569 22.8537 97.4848 23.0265 97.9915 23.2443C98.5028 23.4621 98.9598 23.7367 99.3622 24.0682C99.7694 24.3996 100.091 24.7997 100.328 25.2685C100.565 25.7372 100.683 26.2865 100.683 26.9162C100.683 27.7685 100.465 28.5189 100.03 29.1676C99.5942 29.8116 98.9645 30.3158 98.1406 30.6804C97.3215 31.0402 96.3295 31.2202 95.1648 31.2202C94.0331 31.2202 93.0507 31.045 92.2173 30.6946C91.3887 30.3442 90.7401 29.8329 90.2713 29.1605C89.8073 28.4882 89.5563 27.669 89.5185 26.7031H92.1108C92.1487 27.2098 92.3049 27.6312 92.5795 27.9673C92.8542 28.3035 93.2116 28.5545 93.652 28.7202C94.0971 28.8859 94.5942 28.9688 95.1435 28.9688C95.7164 28.9688 96.2183 28.8835 96.6491 28.7131C97.0848 28.5379 97.4257 28.2964 97.6719 27.9886C97.9181 27.6761 98.0436 27.3116 98.0483 26.8949C98.0436 26.5161 97.9323 26.2036 97.7145 25.9574C97.4967 25.7064 97.1913 25.4981 96.7983 25.3324C96.41 25.1619 95.9555 25.0104 95.4347 24.8778L93.7798 24.4517C92.5819 24.1439 91.6349 23.6776 90.9389 23.0526C90.2476 22.4228 89.902 21.5871 89.902 20.5455C89.902 19.6884 90.134 18.938 90.598 18.294C91.0668 17.6501 91.7036 17.1506 92.5085 16.7955C93.3134 16.4356 94.2249 16.2557 95.2429 16.2557C96.2751 16.2557 97.1795 16.4356 97.956 16.7955C98.7372 17.1506 99.3504 17.6454 99.7955 18.2798C100.241 18.9096 100.47 19.634 100.484 20.4531H97.9489ZM105.17 31L102.088 20.0909H104.708L106.626 27.7614H106.725L108.686 20.0909H111.278L113.238 27.7188H113.345L115.234 20.0909H117.862L114.772 31H112.095L110.049 23.6278H109.9L107.855 31H105.17ZM122.796 31.2202C122.105 31.2202 121.482 31.0971 120.928 30.8509C120.379 30.5999 119.943 30.2306 119.621 29.7429C119.304 29.2552 119.146 28.6539 119.146 27.9389C119.146 27.3234 119.259 26.8144 119.487 26.4119C119.714 26.0095 120.024 25.6875 120.417 25.446C120.81 25.2045 121.253 25.0223 121.745 24.8991C122.242 24.7713 122.756 24.679 123.286 24.6222C123.925 24.5559 124.444 24.4967 124.842 24.4446C125.239 24.3878 125.528 24.3026 125.708 24.1889C125.893 24.0705 125.985 23.8883 125.985 23.642V23.5994C125.985 23.0644 125.826 22.6501 125.509 22.3565C125.192 22.063 124.735 21.9162 124.138 21.9162C123.509 21.9162 123.009 22.0535 122.64 22.3281C122.275 22.6027 122.029 22.9271 121.901 23.3011L119.501 22.9602C119.69 22.2973 120.003 21.7434 120.438 21.2983C120.874 20.8485 121.406 20.5123 122.036 20.2898C122.666 20.0625 123.362 19.9489 124.124 19.9489C124.65 19.9489 125.173 20.0104 125.694 20.1335C126.215 20.2566 126.691 20.4602 127.121 20.7443C127.552 21.0237 127.898 21.4048 128.158 21.8878C128.424 22.3707 128.556 22.9744 128.556 23.6989V31H126.085V29.5014H125.999C125.843 29.8045 125.623 30.0885 125.339 30.3537C125.059 30.6141 124.707 30.8248 124.281 30.9858C123.859 31.142 123.364 31.2202 122.796 31.2202ZM123.464 29.331C123.98 29.331 124.427 29.2292 124.806 29.0256C125.185 28.8172 125.476 28.5426 125.68 28.2017C125.888 27.8608 125.992 27.4891 125.992 27.0866V25.8011C125.912 25.8674 125.774 25.929 125.58 25.9858C125.391 26.0426 125.178 26.0923 124.941 26.1349C124.704 26.1776 124.47 26.2154 124.238 26.2486C124.006 26.2817 123.805 26.3101 123.634 26.3338C123.251 26.3859 122.907 26.4711 122.604 26.5895C122.301 26.7079 122.062 26.8736 121.887 27.0866C121.712 27.295 121.624 27.5649 121.624 27.8963C121.624 28.3698 121.797 28.7273 122.143 28.9688C122.488 29.2102 122.929 29.331 123.464 29.331ZM131.141 35.0909V20.0909H133.67V21.8949H133.819C133.951 21.6297 134.138 21.348 134.38 21.0497C134.621 20.7467 134.948 20.4886 135.36 20.2756C135.772 20.0578 136.298 19.9489 136.937 19.9489C137.78 19.9489 138.54 20.1643 139.217 20.5952C139.898 21.0213 140.438 21.6534 140.836 22.4915C141.238 23.3248 141.44 24.3475 141.44 25.5597C141.44 26.7576 141.243 27.7756 140.85 28.6136C140.457 29.4517 139.922 30.0909 139.245 30.5312C138.568 30.9716 137.801 31.1918 136.944 31.1918C136.319 31.1918 135.8 31.0876 135.388 30.8793C134.977 30.6709 134.645 30.42 134.394 30.1264C134.148 29.8281 133.956 29.5464 133.819 29.2812H133.712V35.0909H131.141ZM133.663 25.5455C133.663 26.2509 133.762 26.8688 133.961 27.3991C134.165 27.9295 134.456 28.3437 134.835 28.642C135.218 28.9356 135.682 29.0824 136.227 29.0824C136.795 29.0824 137.271 28.9309 137.654 28.6278C138.038 28.3201 138.326 27.901 138.521 27.3707C138.719 26.8357 138.819 26.2273 138.819 25.5455C138.819 24.8684 138.722 24.267 138.528 23.7415C138.334 23.2159 138.045 22.804 137.661 22.5057C137.278 22.2074 136.799 22.0582 136.227 22.0582C135.677 22.0582 135.211 22.2027 134.827 22.4915C134.444 22.7803 134.153 23.1851 133.954 23.706C133.76 24.2268 133.663 24.84 133.663 25.5455Z" fill="white"/>
<path d="M4.6875 35V8.81818H16.0398C18.0341 8.81818 19.7088 9.08665 21.0639 9.62358C22.4276 10.1605 23.4545 10.919 24.1449 11.8991C24.8438 12.8793 25.1932 14.0341 25.1932 15.3636C25.1932 16.3267 24.9801 17.2045 24.554 17.9972C24.1364 18.7898 23.5483 19.4545 22.7898 19.9915C22.0313 20.5199 21.1449 20.8864 20.1307 21.0909V21.3466C21.2557 21.3892 22.2784 21.6747 23.1989 22.2031C24.1193 22.723 24.8523 23.4432 25.3977 24.3636C25.9432 25.2756 26.2159 26.3494 26.2159 27.5852C26.2159 29.017 25.8409 30.2912 25.0909 31.4077C24.3494 32.5241 23.2926 33.402 21.9205 34.0412C20.5483 34.6804 18.9119 35 17.0114 35H4.6875ZM11.7955 29.3239H15.1193C16.3125 29.3239 17.2074 29.1023 17.804 28.6591C18.4006 28.2074 18.6989 27.5426 18.6989 26.6648C18.6989 26.0511 18.5582 25.5312 18.277 25.1051C17.9957 24.679 17.5952 24.3551 17.0753 24.1335C16.5639 23.9119 15.946 23.8011 15.2216 23.8011H11.7955V29.3239ZM11.7955 19.4034H14.7102C15.3324 19.4034 15.8821 19.3054 16.3594 19.1094C16.8366 18.9134 17.2074 18.6321 17.4716 18.2656C17.7443 17.8906 17.8807 17.4347 17.8807 16.8977C17.8807 16.0881 17.5909 15.4702 17.0114 15.044C16.4318 14.6094 15.6989 14.392 14.8125 14.392H11.7955V19.4034Z" fill="url(#paint0_linear_1433_51)"/>
</g>
<defs>
<filter id="filter0_d_1433_51" x="0.6875" y="8.81836" width="144.752" height="34.2725" filterUnits="userSpaceOnUse" color-interpolation-filters="sRGB">
<feFlood flood-opacity="0" result="BackgroundImageFix"/>
<feColorMatrix in="SourceAlpha" type="matrix" values="0 0 0 0 0 0 0 0 0 0 0 0 0 0 0 0 0 0 127 0" result="hardAlpha"/>
<feOffset dy="4"/>
<feGaussianBlur stdDeviation="2"/>
<feComposite in2="hardAlpha" operator="out"/>
<feColorMatrix type="matrix" values="0 0 0 0 0 0 0 0 0 0 0 0 0 0 0 0 0 0 0.25 0"/>
<feBlend mode="normal" in2="BackgroundImageFix" result="effect1_dropShadow_1433_51"/>
<feBlend mode="normal" in="SourceGraphic" in2="effect1_dropShadow_1433_51" result="shape"/>
</filter>
<linearGradient id="paint0_linear_1433_51" x1="30.5" y1="38" x2="3" y2="7" gradientUnits="userSpaceOnUse">
<stop stop-color="#4CF9FF"/>
<stop offset="1" stop-color="#3A84FF"/>
</linearGradient>
</defs>
</svg>
